<svg xmlns="http://www.w3.org/2000/svg" viewBox="0 0 150 33"><path d="M18.7 13.1c-.6-.4-1.2-.8-1.8-1.1-.7-.3-1.3-.6-2.1-.8-.8-.1-1.6-.2-2.4-.2-1.1 0-2.1.3-3 .9-1.1.8-1.8 1.9-2.1 3.3-.2.9-.2 1.7-.1 2.6.2 1.2.5 2.3 1.4 3.2.7.8 1.5 1.3 2.5 1.6.4.1.8.2 1.2.2.7 0 1.4.1 2.2-.2v-5.1c.4-.1 4.1-.1 5 0V25c0 .5-.1.7-.6.9-.8.4-1.7.6-2.6.9-1.6.4-3.3.4-5 .3-1.3-.1-2.7-.4-3.9-1-.5-.3-1.1-.6-1.6-.9-.5-.4-1.1-.8-1.5-1.3-.6-.7-1.1-1.4-1.4-2.2-.3-.7-.5-1.5-.7-2.2-.3-1.2-.2-2.5-.2-3.7 0-1 .3-2.1.7-3.1.3-.7.6-1.4 1.1-2.1.5-.7 1-1.3 1.7-1.8s1.4-1 2.2-1.4c.8-.4 1.7-.6 2.6-.8.8-.1 1.5-.3 2.3-.2 1.4.1 2.9.1 4.3.7l1.5.6c.3.1.4.3.4.6v4.5c-.1.2-.1.2-.1.3zM36.2 11.3h-8.3v3.3H35.2c.3 0 .4.1.4.4v4H28v3.4h8.4v4.5H23v-20h13c.3 0 .4.1.4.4-.2 1.2-.2 2.6-.2 4zM55.4 6.8v4.4h-5.8c-.1.5 0 1 0 1.5V27.1h-5.1V11.5h-6V7c5.5-.2 11.2-.2 16.9-.2zM136 12.3c1.3-.1 2.5-.2 3.7-.2 1.2 0 2.3.2 3.3.8 1.4.8 2.4 1.9 2.5 3.7 0 .4.2.8.2 1.2-.1 1-.3 1.9-.7 2.8-.6 1.3-1.7 2-2.9 2.4-1.1.3-2.2.5-3.3.4-.8-.1-1.5-.2-2.3-.2-.3 0-.5-.2-.5-.5v-.4-9.6-.4zm2.7 8.5h1.3c.8.1 1.4-.3 1.9-.7 1-.9 1-2.1.8-3.3-.1-.6-.4-1.1-.9-1.4-.8-.5-1.7-.8-2.6-.7-.3 0-.5.2-.5.5v5.6zM97.4 19.7v3.4h-2.7V12.4c1.4-.3 2.8-.4 4.2-.3.9.1 1.9.4 2.6.9 1 .7 1.6 2.7 1.1 3.8-.3.8-.7 1.6-1.5 2.1-.1.1-.2.2-.3.2.9 1.3 1.9 2.6 2.8 3.9-.4.1-2.7.3-2.9.1-.2-.1-.5-.3-.6-.5-.5-.8-1-1.6-1.6-2.4-.3-.5-.3-.5-1.1-.5zm0-2.4h1.3c.8-.1 1.2-.5 1.2-1.3 0-.9-.4-1.4-1.2-1.4h-1.3v2.7zM123.5 21.9c-1-.5-.4-1.4-.6-2.2.2-.1.4-.1.6-.2v-3.9c-1-.5-.4-1.4-.6-2.1.1-.3.6-.1.6-.6.1-.8.8-1.1 1.5-1.1h3c.3 0 .7.1 1 .3.4.3.8.6.6 1.2.2.1.4.1.6.2v2c-.2.1-.4.1-.5.2v3.9c.2.1.3.1.5.2v2c-.2 0-.3.1-.6.2v.9c0 .3-.2.5-.6.5h-5.2c-.3 0-.5-.2-.5-.6.2-.3.2-.6.2-.9zm5.1-6.7h-3.9v.7c0 .3.2.5.5.5h2.9c.2 0 .4-.2.5-.4v-.8zm-4 5.2h3.9v-1.1h-3.6c-.1.3-.2.7-.3 1.1zM117.7 12.3c-1.2 1.8-2.4 3.6-3.5 5.3 1.2 1.8 2.4 3.7 3.7 5.6h-3.2c-1.2-1.5-2-3.3-3.3-4.9-.2 1-.1 1.7-.1 2.5v2.4h-2.4c-.3 0-.5-.2-.5-.5v-.4-9.1-.4c0-.3.2-.5.5-.5h2.4v4.9c.1 0 .2 0 .3.1 1-1.6 2-3.2 3-4.9.9-.1 1.9-.1 3.1-.1zM79.1 23.2c.6-1.5 1.2-3 1.7-4.4.6-1.5 1.2-3.1 1.8-4.6.2-.4.4-.9.5-1.3.1-.4.4-.6.9-.6h2.6c1.4 3.6 2.8 7.2 4.2 10.9H88c-.1 0-.3-.3-.4-.4-.2-.4-.3-.8-.4-1.2 0-.4-.2-.6-.5-.6h-3.6c-.3 0-.5.1-.5.4-.1.4-.3.8-.4 1.2-.1.4-.3.5-.6.5-.8.1-1.6.1-2.5.1zm4.7-4.4h2.5c-.4-1.2-.8-2.3-1.2-3.5-.5.7-1.3 2.9-1.3 3.5zM69.7 20.1v3H67V12.3h.6c1-.1 2-.1 3-.2.8 0 1.6.2 2.3.5.9.4 1.5 1 1.8 2 .4 1.2.5 2.3-.1 3.4s-1.5 1.8-2.8 1.9c-.6 0-1.3.1-2.1.2zm.1-2.7c.7.6 1.4.2 2-.1.7-.4.5-1.2.5-1.7-.7-1-1.5-1.1-2.5-.9v2.7zM63.4 6.6h.8v20.3h-.8zM77.5 6.6h.8v20.3h-.8zM91.3 6.7h.8V27h-.8zM105.3 6.6h.8v20.3h-.8zM119.4 6.7h.8V27h-.8zM133.2 6.7h.8V27h-.8zM147.2 6.7h.8V27h-.8z"/></svg>