<?xml version="1.0" encoding="utf-8"?>
<!-- Generator: Adobe Illustrator 19.0.0, SVG Export Plug-In . SVG Version: 6.00 Build 0)  -->
<svg version="1.1" id="Layer_1" xmlns="http://www.w3.org/2000/svg" xmlns:xlink="http://www.w3.org/1999/xlink" x="0px" y="0px"
	 viewBox="0 0 500 328.7" style="enable-background:new 0 0 500 328.7;" xml:space="preserve">
<style type="text/css">
	.st0{fill:#127DC2;}
	.st1{fill:#758C91;}
	.st2{fill:#C7C8C9;}
</style>
<path id="XMLID_145_" class="st0" d="M170.6,69.7c-5.1-3.3-9.5-6.7-14.4-9.1c-5.3-2.6-10.8-4.8-16.7-6.2c-6.5-1.5-13-1.8-19.5-1.8
	c-8.7,0-16.9,2.5-23.7,7.5c-8.7,6.4-14.4,15.3-16.5,26.4c-1.3,6.9-1.4,13.9-0.7,20.7c0.9,9.3,3.8,18.2,10.3,25.6
	c5.5,6.4,12.2,10.4,20.1,12.9c3.2,1,6.6,1.6,10,1.8c5.7,0.3,11.5,0.5,17.3-1.5c0-13.4,0-27.1,0-40.6c3.6-1,33-1.2,40.1-0.3
	c0,1.4,0,2.9,0,4.3c0,18.8-0.1,37.7,0.1,56.5c0,3.7-1.1,5.4-4.5,7c-6.8,3.1-13.8,5.2-21.1,6.9c-13.1,3-26.4,3.5-39.7,2.7
	c-10.8-0.6-21.4-3.1-31.2-8c-4.3-2.2-8.6-4.6-12.5-7.4c-4.4-3.1-8.4-6.4-12-10.6c-4.7-5.6-8.6-11.5-11.6-18
	c-2.6-5.7-4.1-11.8-5.6-17.9c-2.4-9.8-2.2-19.6-1.8-29.5c0.3-8.4,2.3-16.6,5.4-24.5c2.4-6,4.9-11.9,9-17.1
	c4.1-5.3,8.2-10.4,13.6-14.7c5.4-4.3,11.1-7.9,17.3-10.9c6.6-3.1,13.5-5.1,20.7-6.4c6.1-1,12.3-2.2,18.5-1.8
	c11.6,0.8,23.4,1.1,34.4,5.8c4,1.7,8,3.4,12,5c2.2,0.9,3.2,2.5,3.2,5c-0.1,12,0,24-0.1,36C170.9,68.3,170.8,68.9,170.6,69.7z"/>
<path id="XMLID_144_" class="st0" d="M310.9,54.7c-22.6,0-44.5,0-66.7,0c0,8.9,0,17.7,0,26.8c1.3,0.1,2.5,0.2,3.8,0.2
	c17,0,34,0,51,0c1,0,2,0,3,0c2.1,0,3,1.1,2.9,3.1c0,1.5,0,3,0,4.5c0,9,0,17.9,0,27.3c-20.3,0-40.4,0-60.7,0c0,9.1,0,17.9,0,27
	c22.4,0,44.8,0,67.5,0c0,12.1,0,23.9,0,35.9c-35.7,0-71.5,0-107.5,0c0-53.4,0-106.8,0-160.6c1.2-0.1,2.5-0.2,3.8-0.2
	c32.5,0,65,0,97.5,0c0.8,0,1.7,0,2.5,0c2.1,0,3,1,3,3.1C310.9,32.5,310.9,43.4,310.9,54.7z"/>
<path id="XMLID_143_" class="st0" d="M464.8,18.9c0,11.8,0,23.4,0,35.1c-0.1,0.1-0.2,0.2-0.3,0.3c-0.1,0.1-0.3,0.2-0.4,0.3
	c-0.3,0-0.7,0.1-1,0.1c-15.1,0-30.3,0-45.7,0c-0.8,4.1-0.3,8.2-0.4,12.3c-0.1,4.2,0,8.3,0,12.5s0,8.3,0,12.5s0,8.3,0,12.5
	s0,8.3,0,12.5s0,8.3,0,12.5s0,8.3,0,12.5s0,8.3,0,12.5s0,8.3,0,12.5c0,4.1,0,8.2,0,12.6c-13.8,0-27.2,0-40.9,0
	c0-41.5,0-82.9,0-124.7c-16.1,0-31.8,0-47.8,0c0-12.1,0-23.8,0-35.9C373.5,18.9,418.9,18.9,464.8,18.9z"/>
<path id="XMLID_140_" class="st1" d="M409.1,236.8c6.6-0.4,12.8-0.8,19-1.1c5.9-0.2,11.7,1.1,16.8,4c7.3,4.1,12.5,9.9,13,18.9
	c0.1,2.1,1.2,4.2,0.9,6.2c-0.8,4.9-1.3,9.8-3.7,14.5c-3.3,6.5-8.5,10.5-15.1,12.2c-5.4,1.4-11.1,2.8-16.9,2.1
	c-3.9-0.5-7.8-1.2-11.7-1c-1.5,0.1-2.4-0.9-2.5-2.5c0-0.7,0-1.3,0-2c0-16.5,0-33,0-49.5C409,238.2,409,237.7,409.1,236.8z
	 M422.9,280.7c2.7,0,4.7-0.1,6.6,0c3.9,0.3,7-1.3,9.7-3.8c5.2-4.8,5.4-10.8,4.2-17.2c-0.6-3-1.9-5.7-4.4-7.3
	c-4-2.6-8.5-3.9-13.4-3.7c-1.8,0.1-2.7,1-2.7,2.8C422.9,261,422.9,270.6,422.9,280.7z"/>
<path id="XMLID_137_" class="st1" d="M210.9,274.9c0,6,0,11.6,0,17.5c-4.6,0-9,0-13.7,0c0-18.4,0-36.8,0-55.1
	c7-1.6,14.2-2.1,21.4-1.5c4.8,0.4,9.5,1.9,13.6,4.7c4.9,3.4,8.2,13.8,5.9,19.4c-1.8,4.3-3.4,8.3-7.6,10.7c-0.6,0.3-1.1,0.8-1.6,1.2
	c4.8,6.8,9.5,13.4,14.2,20.1c-2.2,0.6-13.7,1.4-15,0.7c-1.2-0.6-2.4-1.7-3.2-2.8c-2.8-4-5.4-8.1-8.1-12.1
	C215.1,274.8,215.1,274.8,210.9,274.9z M211,262.7c2.6,0,4.7,0.1,6.9,0c4-0.3,6-2.6,6-6.7c0-4.5-1.9-6.9-6-7.2c-2.3-0.1-4.5,0-6.9,0
	C211,253.5,211,257.8,211,262.7z"/>
<path id="XMLID_133_" class="st0" d="M344.9,286.4c-5.3-2.6-2-7.4-3.2-11.2c1.1-0.4,1.9-0.6,3-1c0-6.6,0-13.2,0-19.9
	c-5.2-2.4-1.8-7.2-2.9-10.6c0.8-1.6,3-0.5,3.3-3.1c0.5-4.1,4.2-5.6,7.9-5.8c5.1-0.2,10.3-0.2,15.5,0c1.7,0.1,3.6,0.5,5.1,1.4
	c2.1,1.3,3.9,3.2,3.3,6.1c1.1,0.3,2,0.6,2.9,0.9c0,3.4,0,6.7,0,10.1c-0.9,0.3-1.8,0.6-2.8,0.9c0,6.7,0,13.3,0,20.1
	c0.9,0.3,1.8,0.5,2.7,0.8c0,3.3,0,6.6,0,10.1c-0.8,0.3-1.7,0.5-2.9,0.9c0,1.6,0,3.2,0,4.9c-0.1,1.8-1,2.7-2.8,2.7
	c-8.8,0-17.6,0-26.5,0c-1.8,0-2.7-1-2.7-2.8C345,289.3,344.9,287.8,344.9,286.4z M370.9,251.7c-3.8,0-6.9,0-10.1,0
	c-3.3,0-6.5,0-9.9,0c0,1.6-0.1,2.6,0,3.6c0.1,1.6,1.1,2.4,2.6,2.4c5,0,10,0.1,15-0.1c0.8,0,1.9-1.2,2.3-2.1
	C371.2,254.5,370.9,253.3,370.9,251.7z M350.6,278.4c7.3,0,13.7,0,20.1,0c0-2,0-3.8,0-5.6c-6.2,0-12.1,0-18.5,0
	C351.7,274.5,351.2,276.2,350.6,278.4z"/>
<path id="XMLID_132_" class="st1" d="M315.2,236.8c-6.2,9.4-12.2,18.3-18,27.2c6.3,9.5,12.5,18.9,19,28.6c-5.9,0-11.2,0-16.5,0
	c-5.9-7.7-10-16.7-17-24.9c-1.2,5-0.5,8.9-0.6,12.8c-0.1,4,0,7.9,0,12.2c-4.3,0-8.3,0-12.3,0c-1.8,0-2.7-1-2.7-2.8c0-0.7,0-1.3,0-2
	c0-15.5,0-31,0-46.5c0-0.7,0-1.3,0-2c0.1-1.8,1-2.7,2.8-2.7c4,0,7.9,0,12.2,0c0,4.5,0,8.7,0,12.8c0,4,0,8.1,0,12.1
	c0.4,0.1,0.9,0.2,1.3,0.3c5.1-8.3,10.2-16.6,15.4-25.1C303.8,236.8,309.1,236.8,315.2,236.8z"/>
<path id="XMLID_129_" class="st1" d="M116.9,292.7c3.1-7.8,6.1-15.2,9-22.6c3.1-7.9,6-15.9,9.1-23.8c0.9-2.2,1.9-4.4,2.6-6.7
	c0.7-2.3,2.2-2.9,4.5-2.8c4.3,0.2,8.6,0.1,13.5,0.1c7.1,18.3,14.3,36.8,21.8,55.9c-5.1,0.1-9.7,0.1-14.3-0.1c-0.7,0-1.7-1.4-2.1-2.3
	c-0.9-2.1-1.5-4.2-2.1-6.4c-0.4-1.5-1.3-2.2-2.8-2.2c-6.2,0-12.3,0-18.5,0c-1.5,0-2.4,0.8-2.8,2.3c-0.5,2-1.5,3.9-1.9,5.9
	c-0.4,2.1-1.3,2.8-3.3,2.8C125.6,292.6,121.5,292.7,116.9,292.7z M141.2,270.4c4.4,0,8.5,0,12.7,0c-2.1-6-4.2-11.8-6.3-17.8
	C145.1,256,141.1,267.1,141.2,270.4z"/>
<path id="XMLID_126_" class="st0" d="M68.9,277.2c0,5.1,0,10,0,15.2c-4.6,0-9,0-13.7,0c0-18.4,0-36.8,0-55.5c1-0.1,2.1-0.2,3.2-0.2
	c5.1-0.3,10.1-0.7,15.2-1c4.1-0.2,8.2,0.8,11.8,2.3c4.4,1.9,7.8,5.3,9.5,10.1c2,6,2.6,12-0.6,17.7c-3.2,5.5-7.5,9.3-14.2,9.9
	C76.5,276,73,276.6,68.9,277.2z M69.1,263.1c3.7,2.9,7.3,1,10.4-0.7c3.6-2,2.5-6,2.5-8.8c-3.4-5.2-7.9-5.4-12.8-4.5
	C69.1,253.9,69.1,258.5,69.1,263.1z"/>
<rect id="XMLID_27_" x="36.6" y="207.9" class="st2" width="4.1" height="104.2"/>
<rect id="XMLID_35_" x="108.9" y="207.9" class="st2" width="4.1" height="104.2"/>
<rect id="XMLID_36_" x="179.8" y="208" class="st2" width="4.1" height="104.2"/>
<rect id="XMLID_37_" x="251.6" y="207.9" class="st2" width="4.1" height="104.2"/>
<rect id="XMLID_38_" x="324.1" y="208.1" class="st2" width="4.1" height="104.2"/>
<rect id="XMLID_41_" x="394.6" y="208.1" class="st2" width="4.1" height="104.2"/>
<rect id="XMLID_42_" x="466.6" y="208" class="st2" width="4.1" height="104.2"/>
<g id="XMLID_28_">
</g>
<g id="XMLID_29_">
</g>
<g id="XMLID_30_">
</g>
<g id="XMLID_31_">
</g>
<g id="XMLID_32_">
</g>
<g id="XMLID_33_">
</g>
</svg>
